<svg xmlns="http://www.w3.org/2000/svg" viewBox="0 0 48 48" width="48" height="48">
  <rect width="48" height="48" rx="8" fill="#ffffff"></rect>
  
  <path fill="#EA4335" d="M24 9.5c3.54 0 6.01 1.53 7.39 2.82l5.46-5.46C33.5 3.98 29.2 2 24 2 14.82 2 6.98 7.86 3.68 16.09l6.73 5.23C12.1 14.35 17.6 9.5 24 9.5z"></path>
  
  <path fill="#4285F4" d="M46.1 24.5c0-1.63-.15-3.2-.42-4.71H24v9h12.45c-.54 2.9-2.18 5.36-4.64 7.02l7.16 5.57C43.86 36.96 46.1 31.2 46.1 24.5z"></path>
  
  <path fill="#FBBC05" d="M10.41 28.32a14.5 14.5 0 010-8.64l-6.73-5.23A23.99 23.99 0 002 24c0 3.87.93 7.53 2.68 10.55l6.73-5.23z"></path>
  
  <path fill="#34A853" d="M24 46c6.48 0 11.93-2.14 15.9-5.82l-7.16-5.57c-1.99 1.34-4.53 2.14-8.74 2.14-6.4 0-11.9-4.85-13.59-11.32l-6.73 5.23C6.98 40.14 14.82 46 24 46z"></path>
</svg>